<?xml version="1.0" encoding="us-ascii" standalone="no"?><svg xmlns="http://www.w3.org/2000/svg" xmlns:xlink="http://www.w3.org/1999/xlink" contentStyleType="text/css" height="749px" preserveAspectRatio="none" style="width:1235px;height:749px;background:#FFFFFF;" version="1.1" viewBox="0 0 1235 749" width="1235px" zoomAndPan="magnify"><defs/><g><text fill="#000000" font-family="sans-serif" font-size="14" font-weight="bold" lengthAdjust="spacing" textLength="162" x="535.5" y="27.9951">Add Liquidity to Pool</text><rect fill="#FFFFFF" height="574.7266" style="stroke:#181818;stroke-width:1.0;" width="10" x="180" y="149.7266"/><rect fill="#FFFFFF" height="531.5938" style="stroke:#181818;stroke-width:1.0;" width="10" x="340.5" y="178.8594"/><rect fill="#FFFFFF" height="445.3281" style="stroke:#181818;stroke-width:1.0;" width="10" x="345.5" y="237.125"/><rect fill="#FFFFFF" height="488.4609" style="stroke:#181818;stroke-width:1.0;" width="10" x="489" y="207.9922"/><rect fill="#FFFFFF" height="143.3984" style="stroke:#181818;stroke-width:1.0;" width="10" x="494" y="266.2578"/><rect fill="#FFFFFF" height="57.1328" style="stroke:#181818;stroke-width:1.0;" width="10" x="494" y="481.9219"/><rect fill="#FFFFFF" height="57.1328" style="stroke:#181818;stroke-width:1.0;" width="10" x="494" y="611.3203"/><rect fill="#FFFFFF" height="100.2656" style="stroke:#181818;stroke-width:1.0;" width="10" x="655" y="295.3906"/><rect fill="#FFFFFF" height="14" style="stroke:#181818;stroke-width:1.0;" width="10" x="815" y="324.5234"/><rect fill="#FFFFFF" height="14" style="stroke:#181818;stroke-width:1.0;" width="10" x="934.5" y="367.6563"/><rect fill="#FFFFFF" height="14" style="stroke:#181818;stroke-width:1.0;" width="10" x="1051.5" y="438.7891"/><rect fill="#FFFFFF" height="14" style="stroke:#181818;stroke-width:1.0;" width="10" x="1051.5" y="511.0547"/><rect fill="#FFFFFF" height="14" style="stroke:#181818;stroke-width:1.0;" width="10" x="1169" y="568.1875"/><rect fill="#FFFFFF" height="14" style="stroke:#181818;stroke-width:1.0;" width="10" x="1169" y="640.4531"/><line style="stroke:#181818;stroke-width:0.5;stroke-dasharray:5.0,5.0;" x1="53" x2="53" y1="118.5938" y2="742.4531"/><line style="stroke:#181818;stroke-width:0.5;stroke-dasharray:5.0,5.0;" x1="185" x2="185" y1="118.5938" y2="742.4531"/><line style="stroke:#181818;stroke-width:0.5;stroke-dasharray:5.0,5.0;" x1="345" x2="345" y1="118.5938" y2="742.4531"/><line style="stroke:#181818;stroke-width:0.5;stroke-dasharray:5.0,5.0;" x1="494" x2="494" y1="118.5938" y2="742.4531"/><line style="stroke:#181818;stroke-width:0.5;stroke-dasharray:5.0,5.0;" x1="660" x2="660" y1="118.5938" y2="742.4531"/><line style="stroke:#181818;stroke-width:0.5;stroke-dasharray:5.0,5.0;" x1="820" x2="820" y1="118.5938" y2="742.4531"/><line style="stroke:#181818;stroke-width:0.5;stroke-dasharray:5.0,5.0;" x1="939" x2="939" y1="118.5938" y2="742.4531"/><line style="stroke:#181818;stroke-width:0.5;stroke-dasharray:5.0,5.0;" x1="1056" x2="1056" y1="118.5938" y2="742.4531"/><line style="stroke:#181818;stroke-width:0.5;stroke-dasharray:5.0,5.0;" x1="1174" x2="1174" y1="118.5938" y2="742.4531"/><text fill="#000000" font-family="sans-serif" font-size="14" lengthAdjust="spacing" textLength="91" x="5" y="115.292">0x48f7..0104</text><ellipse cx="53.5" cy="50.7969" fill="#E2E2F0" rx="8" ry="8" style="stroke:#181818;stroke-width:0.5;"/><path d="M53.5,58.7969 L53.5,85.7969 M40.5,66.7969 L66.5,66.7969 M53.5,85.7969 L40.5,100.7969 M53.5,85.7969 L66.5,100.7969 " fill="none" style="stroke:#181818;stroke-width:0.5;"/><rect fill="#E2E2F0" height="46.5938" rx="2.5" ry="2.5" style="stroke:#181818;stroke-width:0.5;" width="146" x="112" y="71"/><text fill="#000000" font-family="sans-serif" font-size="14" font-style="italic" lengthAdjust="spacing" textLength="132" x="119" y="90.9951">&#171;UniswapV4Caller&#187;</text><text fill="#000000" font-family="sans-serif" font-size="14" lengthAdjust="spacing" textLength="84" x="143" y="107.292">0xf95c..7cf9</text><rect fill="#E2E2F0" height="46.5938" rx="2.5" ry="2.5" style="stroke:#181818;stroke-width:0.5;" width="155" x="268" y="71"/><text fill="#000000" font-family="sans-serif" font-size="14" font-style="italic" lengthAdjust="spacing" textLength="141" x="275" y="90.9951">&#171;UniswapV4Router&#187;</text><text fill="#000000" font-family="sans-serif" font-size="14" lengthAdjust="spacing" textLength="94" x="298.5" y="107.292">0xe6ae..62a9</text><rect fill="#E2E2F0" height="46.5938" rx="2.5" ry="2.5" style="stroke:#181818;stroke-width:0.5;" width="122" x="433" y="71"/><text fill="#000000" font-family="sans-serif" font-size="14" font-style="italic" lengthAdjust="spacing" textLength="108" x="440" y="90.9951">&#171;PoolManager&#187;</text><text fill="#000000" font-family="sans-serif" font-size="14" lengthAdjust="spacing" textLength="95" x="446.5" y="107.292">0x6425..e2cb</text><rect fill="#E2E2F0" height="46.5938" rx="2.5" ry="2.5" style="stroke:#181818;stroke-width:0.5;" width="104" x="608" y="71"/><text fill="#000000" font-family="sans-serif" font-size="14" font-style="italic" lengthAdjust="spacing" textLength="82" x="619" y="90.9951">&#171;KYCHook&#187;</text><text fill="#000000" font-family="sans-serif" font-size="14" lengthAdjust="spacing" textLength="90" x="615" y="107.292">0x2828..8cf7</text><rect fill="#E2E2F0" height="46.5938" rx="2.5" ry="2.5" style="stroke:#181818;stroke-width:0.5;" width="110" x="765" y="71"/><text fill="#000000" font-family="sans-serif" font-size="14" font-style="italic" lengthAdjust="spacing" textLength="82" x="779" y="90.9951">&#171;EASProxy&#187;</text><text fill="#000000" font-family="sans-serif" font-size="14" lengthAdjust="spacing" textLength="96" x="772" y="107.292">0x140b..7336</text><rect fill="#E2E2F0" height="46.5938" rx="2.5" ry="2.5" style="stroke:#181818;stroke-width:0.5;" width="109" x="885" y="71"/><text fill="#000000" font-family="sans-serif" font-size="14" font-style="italic" lengthAdjust="spacing" textLength="45" x="917" y="90.9951">&#171;EAS&#187;</text><text fill="#000000" font-family="sans-serif" font-size="14" lengthAdjust="spacing" textLength="95" x="892" y="107.292">0xc267..815e</text><rect fill="#E2E2F0" height="62.8906" rx="2.5" ry="2.5" style="stroke:#181818;stroke-width:0.5;" width="105" x="1004" y="54.7031"/><text fill="#000000" font-family="sans-serif" font-size="14" font-style="italic" lengthAdjust="spacing" textLength="75" x="1019" y="74.6982">&#171;TOKEN0&#187;</text><text fill="#000000" font-family="sans-serif" font-size="14" font-style="italic" lengthAdjust="spacing" textLength="65" x="1024" y="90.9951">&#171;ERC20&#187;</text><text fill="#000000" font-family="sans-serif" font-size="14" lengthAdjust="spacing" textLength="91" x="1011" y="107.292">0x146f..4922</text><rect fill="#E2E2F0" height="62.8906" rx="2.5" ry="2.5" style="stroke:#181818;stroke-width:0.5;" width="110" x="1119" y="54.7031"/><text fill="#000000" font-family="sans-serif" font-size="14" font-style="italic" lengthAdjust="spacing" textLength="75" x="1136.5" y="74.6982">&#171;TOKEN1&#187;</text><text fill="#000000" font-family="sans-serif" font-size="14" font-style="italic" lengthAdjust="spacing" textLength="65" x="1141.5" y="90.9951">&#171;ERC20&#187;</text><text fill="#000000" font-family="sans-serif" font-size="14" lengthAdjust="spacing" textLength="96" x="1126" y="107.292">0xb618..4de7</text><rect fill="#FFFFFF" height="574.7266" style="stroke:#181818;stroke-width:1.0;" width="10" x="180" y="149.7266"/><rect fill="#FFFFFF" height="531.5938" style="stroke:#181818;stroke-width:1.0;" width="10" x="340.5" y="178.8594"/><rect fill="#FFFFFF" height="445.3281" style="stroke:#181818;stroke-width:1.0;" width="10" x="345.5" y="237.125"/><rect fill="#FFFFFF" height="488.4609" style="stroke:#181818;stroke-width:1.0;" width="10" x="489" y="207.9922"/><rect fill="#FFFFFF" height="143.3984" style="stroke:#181818;stroke-width:1.0;" width="10" x="494" y="266.2578"/><rect fill="#FFFFFF" height="57.1328" style="stroke:#181818;stroke-width:1.0;" width="10" x="494" y="481.9219"/><rect fill="#FFFFFF" height="57.1328" style="stroke:#181818;stroke-width:1.0;" width="10" x="494" y="611.3203"/><rect fill="#FFFFFF" height="100.2656" style="stroke:#181818;stroke-width:1.0;" width="10" x="655" y="295.3906"/><rect fill="#FFFFFF" height="14" style="stroke:#181818;stroke-width:1.0;" width="10" x="815" y="324.5234"/><rect fill="#FFFFFF" height="14" style="stroke:#181818;stroke-width:1.0;" width="10" x="934.5" y="367.6563"/><rect fill="#FFFFFF" height="14" style="stroke:#181818;stroke-width:1.0;" width="10" x="1051.5" y="438.7891"/><rect fill="#FFFFFF" height="14" style="stroke:#181818;stroke-width:1.0;" width="10" x="1051.5" y="511.0547"/><rect fill="#FFFFFF" height="14" style="stroke:#181818;stroke-width:1.0;" width="10" x="1169" y="568.1875"/><rect fill="#FFFFFF" height="14" style="stroke:#181818;stroke-width:1.0;" width="10" x="1169" y="640.4531"/><polygon fill="#181818" points="168,145.7266,178,149.7266,168,153.7266,172,149.7266" style="stroke:#181818;stroke-width:1.0;"/><line style="stroke:#181818;stroke-width:1.0;" x1="53.5" x2="174" y1="149.7266" y2="149.7266"/><text fill="#000000" font-family="sans-serif" font-size="13" lengthAdjust="spacing" textLength="76" x="60.5" y="144.6606">addLiquidity</text><polygon fill="#181818" points="328.5,174.8594,338.5,178.8594,328.5,182.8594,332.5,178.8594" style="stroke:#181818;stroke-width:1.0;"/><line style="stroke:#181818;stroke-width:1.0;" x1="190" x2="334.5" y1="178.8594" y2="178.8594"/><text fill="#000000" font-family="sans-serif" font-size="13" lengthAdjust="spacing" textLength="50" x="197" y="173.7935">process</text><polygon fill="#181818" points="477,203.9922,487,207.9922,477,211.9922,481,207.9922" style="stroke:#181818;stroke-width:1.0;"/><line style="stroke:#181818;stroke-width:1.0;" x1="350.5" x2="483" y1="207.9922" y2="207.9922"/><text fill="#000000" font-family="sans-serif" font-size="13" lengthAdjust="spacing" textLength="25" x="357.5" y="202.9263">lock</text><polygon fill="#181818" points="366.5,233.125,356.5,237.125,366.5,241.125,362.5,237.125" style="stroke:#181818;stroke-width:1.0;"/><line style="stroke:#181818;stroke-width:1.0;" x1="360.5" x2="488" y1="237.125" y2="237.125"/><text fill="#000000" font-family="sans-serif" font-size="13" lengthAdjust="spacing" textLength="81" x="372.5" y="232.0591">lockAcquired</text><polygon fill="#181818" points="482,262.2578,492,266.2578,482,270.2578,486,266.2578" style="stroke:#181818;stroke-width:1.0;"/><line style="stroke:#181818;stroke-width:1.0;" x1="355.5" x2="488" y1="266.2578" y2="266.2578"/><text fill="#000000" font-family="sans-serif" font-size="13" lengthAdjust="spacing" textLength="93" x="362.5" y="261.1919">modifyPosition</text><polygon fill="#181818" points="643,291.3906,653,295.3906,643,299.3906,647,295.3906" style="stroke:#181818;stroke-width:1.0;"/><line style="stroke:#181818;stroke-width:1.0;" x1="504" x2="649" y1="295.3906" y2="295.3906"/><text fill="#000000" font-family="sans-serif" font-size="13" lengthAdjust="spacing" textLength="132" x="511" y="290.3247">beforeModifyPosition</text><polygon fill="#181818" points="803,320.5234,813,324.5234,803,328.5234,807,324.5234" style="stroke:#181818;stroke-width:1.0;"/><line style="stroke:#181818;stroke-width:1.0;" x1="665" x2="809" y1="324.5234" y2="324.5234"/><text fill="#000000" font-family="sans-serif" font-size="13" lengthAdjust="spacing" textLength="131" x="672" y="319.4575">getPadoAttestations</text><polygon fill="#181818" points="676,334.5234,666,338.5234,676,342.5234,672,338.5234" style="stroke:#181818;stroke-width:1.0;"/><line style="stroke:#181818;stroke-width:1.0;stroke-dasharray:2.0,2.0;" x1="670" x2="819" y1="338.5234" y2="338.5234"/><polygon fill="#181818" points="922.5,363.6563,932.5,367.6563,922.5,371.6563,926.5,367.6563" style="stroke:#181818;stroke-width:1.0;"/><line style="stroke:#181818;stroke-width:1.0;" x1="665" x2="928.5" y1="367.6563" y2="367.6563"/><text fill="#000000" font-family="sans-serif" font-size="13" lengthAdjust="spacing" textLength="92" x="672" y="362.5903">getAttestation</text><polygon fill="#181818" points="676,377.6563,666,381.6563,676,385.6563,672,381.6563" style="stroke:#181818;stroke-width:1.0;"/><line style="stroke:#181818;stroke-width:1.0;stroke-dasharray:2.0,2.0;" x1="670" x2="938.5" y1="381.6563" y2="381.6563"/><polygon fill="#181818" points="515,391.6563,505,395.6563,515,399.6563,511,395.6563" style="stroke:#181818;stroke-width:1.0;"/><line style="stroke:#181818;stroke-width:1.0;stroke-dasharray:2.0,2.0;" x1="509" x2="659" y1="395.6563" y2="395.6563"/><polygon fill="#181818" points="366.5,405.6563,356.5,409.6563,366.5,413.6563,362.5,409.6563" style="stroke:#181818;stroke-width:1.0;"/><line style="stroke:#181818;stroke-width:1.0;stroke-dasharray:2.0,2.0;" x1="360.5" x2="488" y1="409.6563" y2="409.6563"/><polygon fill="#181818" points="1039.5,434.7891,1049.5,438.7891,1039.5,442.7891,1043.5,438.7891" style="stroke:#181818;stroke-width:1.0;"/><line style="stroke:#181818;stroke-width:1.0;" x1="355.5" x2="1045.5" y1="438.7891" y2="438.7891"/><text fill="#000000" font-family="sans-serif" font-size="13" lengthAdjust="spacing" textLength="83" x="362.5" y="433.7231">transferFrom</text><polygon fill="#181818" points="366.5,448.7891,356.5,452.7891,366.5,456.7891,362.5,452.7891" style="stroke:#181818;stroke-width:1.0;"/><line style="stroke:#181818;stroke-width:1.0;stroke-dasharray:2.0,2.0;" x1="360.5" x2="1055.5" y1="452.7891" y2="452.7891"/><polygon fill="#181818" points="482,477.9219,492,481.9219,482,485.9219,486,481.9219" style="stroke:#181818;stroke-width:1.0;"/><line style="stroke:#181818;stroke-width:1.0;" x1="355.5" x2="488" y1="481.9219" y2="481.9219"/><text fill="#000000" font-family="sans-serif" font-size="13" lengthAdjust="spacing" textLength="36" x="362.5" y="476.856">settle</text><polygon fill="#181818" points="1039.5,507.0547,1049.5,511.0547,1039.5,515.0547,1043.5,511.0547" style="stroke:#181818;stroke-width:1.0;"/><line style="stroke:#181818;stroke-width:1.0;" x1="504" x2="1045.5" y1="511.0547" y2="511.0547"/><text fill="#000000" font-family="sans-serif" font-size="13" lengthAdjust="spacing" textLength="64" x="511" y="505.9888">balanceOf</text><polygon fill="#181818" points="515,521.0547,505,525.0547,515,529.0547,511,525.0547" style="stroke:#181818;stroke-width:1.0;"/><line style="stroke:#181818;stroke-width:1.0;stroke-dasharray:2.0,2.0;" x1="509" x2="1055.5" y1="525.0547" y2="525.0547"/><polygon fill="#181818" points="366.5,535.0547,356.5,539.0547,366.5,543.0547,362.5,539.0547" style="stroke:#181818;stroke-width:1.0;"/><line style="stroke:#181818;stroke-width:1.0;stroke-dasharray:2.0,2.0;" x1="360.5" x2="488" y1="539.0547" y2="539.0547"/><polygon fill="#181818" points="1157,564.1875,1167,568.1875,1157,572.1875,1161,568.1875" style="stroke:#181818;stroke-width:1.0;"/><line style="stroke:#181818;stroke-width:1.0;" x1="355.5" x2="1163" y1="568.1875" y2="568.1875"/><text fill="#000000" font-family="sans-serif" font-size="13" lengthAdjust="spacing" textLength="83" x="362.5" y="563.1216">transferFrom</text><polygon fill="#181818" points="366.5,578.1875,356.5,582.1875,366.5,586.1875,362.5,582.1875" style="stroke:#181818;stroke-width:1.0;"/><line style="stroke:#181818;stroke-width:1.0;stroke-dasharray:2.0,2.0;" x1="360.5" x2="1173" y1="582.1875" y2="582.1875"/><polygon fill="#181818" points="482,607.3203,492,611.3203,482,615.3203,486,611.3203" style="stroke:#181818;stroke-width:1.0;"/><line style="stroke:#181818;stroke-width:1.0;" x1="355.5" x2="488" y1="611.3203" y2="611.3203"/><text fill="#000000" font-family="sans-serif" font-size="13" lengthAdjust="spacing" textLength="36" x="362.5" y="606.2544">settle</text><polygon fill="#181818" points="1157,636.4531,1167,640.4531,1157,644.4531,1161,640.4531" style="stroke:#181818;stroke-width:1.0;"/><line style="stroke:#181818;stroke-width:1.0;" x1="504" x2="1163" y1="640.4531" y2="640.4531"/><text fill="#000000" font-family="sans-serif" font-size="13" lengthAdjust="spacing" textLength="64" x="511" y="635.3872">balanceOf</text><polygon fill="#181818" points="515,650.4531,505,654.4531,515,658.4531,511,654.4531" style="stroke:#181818;stroke-width:1.0;"/><line style="stroke:#181818;stroke-width:1.0;stroke-dasharray:2.0,2.0;" x1="509" x2="1173" y1="654.4531" y2="654.4531"/><polygon fill="#181818" points="366.5,664.4531,356.5,668.4531,366.5,672.4531,362.5,668.4531" style="stroke:#181818;stroke-width:1.0;"/><line style="stroke:#181818;stroke-width:1.0;stroke-dasharray:2.0,2.0;" x1="360.5" x2="488" y1="668.4531" y2="668.4531"/><polygon fill="#181818" points="477,678.4531,487,682.4531,477,686.4531,481,682.4531" style="stroke:#181818;stroke-width:1.0;"/><line style="stroke:#181818;stroke-width:1.0;stroke-dasharray:2.0,2.0;" x1="350.5" x2="483" y1="682.4531" y2="682.4531"/><polygon fill="#181818" points="361.5,692.4531,351.5,696.4531,361.5,700.4531,357.5,696.4531" style="stroke:#181818;stroke-width:1.0;"/><line style="stroke:#181818;stroke-width:1.0;stroke-dasharray:2.0,2.0;" x1="355.5" x2="493" y1="696.4531" y2="696.4531"/><polygon fill="#181818" points="201,706.4531,191,710.4531,201,714.4531,197,710.4531" style="stroke:#181818;stroke-width:1.0;"/><line style="stroke:#181818;stroke-width:1.0;stroke-dasharray:2.0,2.0;" x1="195" x2="344.5" y1="710.4531" y2="710.4531"/><polygon fill="#181818" points="64.5,720.4531,54.5,724.4531,64.5,728.4531,60.5,724.4531" style="stroke:#181818;stroke-width:1.0;"/><line style="stroke:#181818;stroke-width:1.0;stroke-dasharray:2.0,2.0;" x1="58.5" x2="184" y1="724.4531" y2="724.4531"/><!--SRC=[hPJDRjim48JlV0eYzn2I8iko40WmZ1G5qZH6-WFqI97Bb8WYkXJTsczVhXnASYmZEUGaZ3aVPxcxiDEk1hgKadxHVxPQQhUdpj2rCJNvhILGPOohp8uGBfonz2BQfRcQCnR5KNf1UKjHeg1amwtJGczuuz2d5ZF1s5oeHUT3YO9UN_zeTFkFRtwcArxNOCloDGeP1yQoX1zGb2Z6w8FPkYaqIvCPOv28gaDHel0elkcED_nn2alo96Si5shUOIXHUEpsr-gpCK-dI9n6bN_VrLNM8IXHUEHc-MrjpMv_oeWayxtBunbq34eK1sOg8bECfOiaUOd850fl_tv_U_CrAaiFFgoIw1IjijW_A9LmU11A506DnoZfPtXPzdCgA9UoNmeSl_xB7VJdf1-eXyA42hgnHa3R3lvmHFefUdyOIq5h8vu6S_YTz7CxkXpDI-5BiY3VdV1if5RxjMcrqwPv8oiClg0LA6FXxWmSVAJV50-75IZe8xWrbsRf7BIE8phgIB0H2svhcwChmaPqLupmWGwEG1z_nYq8wr9GPtdJAh2Vh7aUrt4udsA7zhNW_5_46sqReYfUyqR0lJgVCn4NrlDSgU7y0qeTeYPAVPtpZiz_]--></g></svg>