<?xml version="1.0" encoding="us-ascii" standalone="no"?><svg xmlns="http://www.w3.org/2000/svg" xmlns:xlink="http://www.w3.org/1999/xlink" contentStyleType="text/css" height="706px" preserveAspectRatio="none" style="width:1192px;height:706px;background:#FFFFFF;" version="1.1" viewBox="0 0 1192 706" width="1192px" zoomAndPan="magnify"><defs/><g><text fill="#000000" font-family="sans-serif" font-size="14" font-weight="bold" lengthAdjust="spacing" textLength="43" x="573.5" y="27.9951">Swap</text><rect fill="#FFFFFF" height="531.5938" style="stroke:#181818;stroke-width:1.0;" width="10" x="180" y="149.7266"/><rect fill="#FFFFFF" height="488.4609" style="stroke:#181818;stroke-width:1.0;" width="10" x="340.5" y="178.8594"/><rect fill="#FFFFFF" height="402.1953" style="stroke:#181818;stroke-width:1.0;" width="10" x="345.5" y="237.125"/><rect fill="#FFFFFF" height="445.3281" style="stroke:#181818;stroke-width:1.0;" width="10" x="489" y="207.9922"/><rect fill="#FFFFFF" height="143.3984" style="stroke:#181818;stroke-width:1.0;" width="10" x="494" y="266.2578"/><rect fill="#FFFFFF" height="57.1328" style="stroke:#181818;stroke-width:1.0;" width="10" x="494" y="481.9219"/><rect fill="#FFFFFF" height="57.1328" style="stroke:#181818;stroke-width:1.0;" width="10" x="494" y="568.1875"/><rect fill="#FFFFFF" height="100.2656" style="stroke:#181818;stroke-width:1.0;" width="10" x="612" y="295.3906"/><rect fill="#FFFFFF" height="14" style="stroke:#181818;stroke-width:1.0;" width="10" x="772" y="324.5234"/><rect fill="#FFFFFF" height="14" style="stroke:#181818;stroke-width:1.0;" width="10" x="891.5" y="367.6563"/><rect fill="#FFFFFF" height="14" style="stroke:#181818;stroke-width:1.0;" width="10" x="1008.5" y="438.7891"/><rect fill="#FFFFFF" height="14" style="stroke:#181818;stroke-width:1.0;" width="10" x="1008.5" y="511.0547"/><rect fill="#FFFFFF" height="14" style="stroke:#181818;stroke-width:1.0;" width="10" x="1126" y="597.3203"/><line style="stroke:#181818;stroke-width:0.5;stroke-dasharray:5.0,5.0;" x1="53" x2="53" y1="118.5938" y2="699.3203"/><line style="stroke:#181818;stroke-width:0.5;stroke-dasharray:5.0,5.0;" x1="185" x2="185" y1="118.5938" y2="699.3203"/><line style="stroke:#181818;stroke-width:0.5;stroke-dasharray:5.0,5.0;" x1="345" x2="345" y1="118.5938" y2="699.3203"/><line style="stroke:#181818;stroke-width:0.5;stroke-dasharray:5.0,5.0;" x1="494" x2="494" y1="118.5938" y2="699.3203"/><line style="stroke:#181818;stroke-width:0.5;stroke-dasharray:5.0,5.0;" x1="617" x2="617" y1="118.5938" y2="699.3203"/><line style="stroke:#181818;stroke-width:0.5;stroke-dasharray:5.0,5.0;" x1="777" x2="777" y1="118.5938" y2="699.3203"/><line style="stroke:#181818;stroke-width:0.5;stroke-dasharray:5.0,5.0;" x1="896" x2="896" y1="118.5938" y2="699.3203"/><line style="stroke:#181818;stroke-width:0.5;stroke-dasharray:5.0,5.0;" x1="1013" x2="1013" y1="118.5938" y2="699.3203"/><line style="stroke:#181818;stroke-width:0.5;stroke-dasharray:5.0,5.0;" x1="1131" x2="1131" y1="118.5938" y2="699.3203"/><text fill="#000000" font-family="sans-serif" font-size="14" lengthAdjust="spacing" textLength="91" x="5" y="115.292">0x48f7..0104</text><ellipse cx="53.5" cy="50.7969" fill="#E2E2F0" rx="8" ry="8" style="stroke:#181818;stroke-width:0.5;"/><path d="M53.5,58.7969 L53.5,85.7969 M40.5,66.7969 L66.5,66.7969 M53.5,85.7969 L40.5,100.7969 M53.5,85.7969 L66.5,100.7969 " fill="none" style="stroke:#181818;stroke-width:0.5;"/><rect fill="#E2E2F0" height="46.5938" rx="2.5" ry="2.5" style="stroke:#181818;stroke-width:0.5;" width="146" x="112" y="71"/><text fill="#000000" font-family="sans-serif" font-size="14" font-style="italic" lengthAdjust="spacing" textLength="132" x="119" y="90.9951">&#171;UniswapV4Caller&#187;</text><text fill="#000000" font-family="sans-serif" font-size="14" lengthAdjust="spacing" textLength="84" x="143" y="107.292">0xf95c..7cf9</text><rect fill="#E2E2F0" height="46.5938" rx="2.5" ry="2.5" style="stroke:#181818;stroke-width:0.5;" width="155" x="268" y="71"/><text fill="#000000" font-family="sans-serif" font-size="14" font-style="italic" lengthAdjust="spacing" textLength="141" x="275" y="90.9951">&#171;UniswapV4Router&#187;</text><text fill="#000000" font-family="sans-serif" font-size="14" lengthAdjust="spacing" textLength="94" x="298.5" y="107.292">0xe6ae..62a9</text><rect fill="#E2E2F0" height="46.5938" rx="2.5" ry="2.5" style="stroke:#181818;stroke-width:0.5;" width="122" x="433" y="71"/><text fill="#000000" font-family="sans-serif" font-size="14" font-style="italic" lengthAdjust="spacing" textLength="108" x="440" y="90.9951">&#171;PoolManager&#187;</text><text fill="#000000" font-family="sans-serif" font-size="14" lengthAdjust="spacing" textLength="95" x="446.5" y="107.292">0x6425..e2cb</text><rect fill="#E2E2F0" height="46.5938" rx="2.5" ry="2.5" style="stroke:#181818;stroke-width:0.5;" width="104" x="565" y="71"/><text fill="#000000" font-family="sans-serif" font-size="14" font-style="italic" lengthAdjust="spacing" textLength="82" x="576" y="90.9951">&#171;KYCHook&#187;</text><text fill="#000000" font-family="sans-serif" font-size="14" lengthAdjust="spacing" textLength="90" x="572" y="107.292">0x2828..8cf7</text><rect fill="#E2E2F0" height="46.5938" rx="2.5" ry="2.5" style="stroke:#181818;stroke-width:0.5;" width="110" x="722" y="71"/><text fill="#000000" font-family="sans-serif" font-size="14" font-style="italic" lengthAdjust="spacing" textLength="82" x="736" y="90.9951">&#171;EASProxy&#187;</text><text fill="#000000" font-family="sans-serif" font-size="14" lengthAdjust="spacing" textLength="96" x="729" y="107.292">0x140b..7336</text><rect fill="#E2E2F0" height="46.5938" rx="2.5" ry="2.5" style="stroke:#181818;stroke-width:0.5;" width="109" x="842" y="71"/><text fill="#000000" font-family="sans-serif" font-size="14" font-style="italic" lengthAdjust="spacing" textLength="45" x="874" y="90.9951">&#171;EAS&#187;</text><text fill="#000000" font-family="sans-serif" font-size="14" lengthAdjust="spacing" textLength="95" x="849" y="107.292">0xc267..815e</text><rect fill="#E2E2F0" height="62.8906" rx="2.5" ry="2.5" style="stroke:#181818;stroke-width:0.5;" width="105" x="961" y="54.7031"/><text fill="#000000" font-family="sans-serif" font-size="14" font-style="italic" lengthAdjust="spacing" textLength="75" x="976" y="74.6982">&#171;TOKEN0&#187;</text><text fill="#000000" font-family="sans-serif" font-size="14" font-style="italic" lengthAdjust="spacing" textLength="65" x="981" y="90.9951">&#171;ERC20&#187;</text><text fill="#000000" font-family="sans-serif" font-size="14" lengthAdjust="spacing" textLength="91" x="968" y="107.292">0x146f..4922</text><rect fill="#E2E2F0" height="62.8906" rx="2.5" ry="2.5" style="stroke:#181818;stroke-width:0.5;" width="110" x="1076" y="54.7031"/><text fill="#000000" font-family="sans-serif" font-size="14" font-style="italic" lengthAdjust="spacing" textLength="75" x="1093.5" y="74.6982">&#171;TOKEN1&#187;</text><text fill="#000000" font-family="sans-serif" font-size="14" font-style="italic" lengthAdjust="spacing" textLength="65" x="1098.5" y="90.9951">&#171;ERC20&#187;</text><text fill="#000000" font-family="sans-serif" font-size="14" lengthAdjust="spacing" textLength="96" x="1083" y="107.292">0xb618..4de7</text><rect fill="#FFFFFF" height="531.5938" style="stroke:#181818;stroke-width:1.0;" width="10" x="180" y="149.7266"/><rect fill="#FFFFFF" height="488.4609" style="stroke:#181818;stroke-width:1.0;" width="10" x="340.5" y="178.8594"/><rect fill="#FFFFFF" height="402.1953" style="stroke:#181818;stroke-width:1.0;" width="10" x="345.5" y="237.125"/><rect fill="#FFFFFF" height="445.3281" style="stroke:#181818;stroke-width:1.0;" width="10" x="489" y="207.9922"/><rect fill="#FFFFFF" height="143.3984" style="stroke:#181818;stroke-width:1.0;" width="10" x="494" y="266.2578"/><rect fill="#FFFFFF" height="57.1328" style="stroke:#181818;stroke-width:1.0;" width="10" x="494" y="481.9219"/><rect fill="#FFFFFF" height="57.1328" style="stroke:#181818;stroke-width:1.0;" width="10" x="494" y="568.1875"/><rect fill="#FFFFFF" height="100.2656" style="stroke:#181818;stroke-width:1.0;" width="10" x="612" y="295.3906"/><rect fill="#FFFFFF" height="14" style="stroke:#181818;stroke-width:1.0;" width="10" x="772" y="324.5234"/><rect fill="#FFFFFF" height="14" style="stroke:#181818;stroke-width:1.0;" width="10" x="891.5" y="367.6563"/><rect fill="#FFFFFF" height="14" style="stroke:#181818;stroke-width:1.0;" width="10" x="1008.5" y="438.7891"/><rect fill="#FFFFFF" height="14" style="stroke:#181818;stroke-width:1.0;" width="10" x="1008.5" y="511.0547"/><rect fill="#FFFFFF" height="14" style="stroke:#181818;stroke-width:1.0;" width="10" x="1126" y="597.3203"/><polygon fill="#181818" points="168,145.7266,178,149.7266,168,153.7266,172,149.7266" style="stroke:#181818;stroke-width:1.0;"/><line style="stroke:#181818;stroke-width:1.0;" x1="53.5" x2="174" y1="149.7266" y2="149.7266"/><text fill="#000000" font-family="sans-serif" font-size="13" lengthAdjust="spacing" textLength="32" x="60.5" y="144.6606">swap</text><polygon fill="#181818" points="328.5,174.8594,338.5,178.8594,328.5,182.8594,332.5,178.8594" style="stroke:#181818;stroke-width:1.0;"/><line style="stroke:#181818;stroke-width:1.0;" x1="190" x2="334.5" y1="178.8594" y2="178.8594"/><text fill="#000000" font-family="sans-serif" font-size="13" lengthAdjust="spacing" textLength="50" x="197" y="173.7935">process</text><polygon fill="#181818" points="477,203.9922,487,207.9922,477,211.9922,481,207.9922" style="stroke:#181818;stroke-width:1.0;"/><line style="stroke:#181818;stroke-width:1.0;" x1="350.5" x2="483" y1="207.9922" y2="207.9922"/><text fill="#000000" font-family="sans-serif" font-size="13" lengthAdjust="spacing" textLength="25" x="357.5" y="202.9263">lock</text><polygon fill="#181818" points="366.5,233.125,356.5,237.125,366.5,241.125,362.5,237.125" style="stroke:#181818;stroke-width:1.0;"/><line style="stroke:#181818;stroke-width:1.0;" x1="360.5" x2="488" y1="237.125" y2="237.125"/><text fill="#000000" font-family="sans-serif" font-size="13" lengthAdjust="spacing" textLength="81" x="372.5" y="232.0591">lockAcquired</text><polygon fill="#181818" points="482,262.2578,492,266.2578,482,270.2578,486,266.2578" style="stroke:#181818;stroke-width:1.0;"/><line style="stroke:#181818;stroke-width:1.0;" x1="355.5" x2="488" y1="266.2578" y2="266.2578"/><text fill="#000000" font-family="sans-serif" font-size="13" lengthAdjust="spacing" textLength="32" x="362.5" y="261.1919">swap</text><polygon fill="#181818" points="600,291.3906,610,295.3906,600,299.3906,604,295.3906" style="stroke:#181818;stroke-width:1.0;"/><line style="stroke:#181818;stroke-width:1.0;" x1="504" x2="606" y1="295.3906" y2="295.3906"/><text fill="#000000" font-family="sans-serif" font-size="13" lengthAdjust="spacing" textLength="75" x="511" y="290.3247">beforeSwap</text><polygon fill="#181818" points="760,320.5234,770,324.5234,760,328.5234,764,324.5234" style="stroke:#181818;stroke-width:1.0;"/><line style="stroke:#181818;stroke-width:1.0;" x1="622" x2="766" y1="324.5234" y2="324.5234"/><text fill="#000000" font-family="sans-serif" font-size="13" lengthAdjust="spacing" textLength="131" x="629" y="319.4575">getPadoAttestations</text><polygon fill="#181818" points="633,334.5234,623,338.5234,633,342.5234,629,338.5234" style="stroke:#181818;stroke-width:1.0;"/><line style="stroke:#181818;stroke-width:1.0;stroke-dasharray:2.0,2.0;" x1="627" x2="776" y1="338.5234" y2="338.5234"/><polygon fill="#181818" points="879.5,363.6563,889.5,367.6563,879.5,371.6563,883.5,367.6563" style="stroke:#181818;stroke-width:1.0;"/><line style="stroke:#181818;stroke-width:1.0;" x1="622" x2="885.5" y1="367.6563" y2="367.6563"/><text fill="#000000" font-family="sans-serif" font-size="13" lengthAdjust="spacing" textLength="92" x="629" y="362.5903">getAttestation</text><polygon fill="#181818" points="633,377.6563,623,381.6563,633,385.6563,629,381.6563" style="stroke:#181818;stroke-width:1.0;"/><line style="stroke:#181818;stroke-width:1.0;stroke-dasharray:2.0,2.0;" x1="627" x2="895.5" y1="381.6563" y2="381.6563"/><polygon fill="#181818" points="515,391.6563,505,395.6563,515,399.6563,511,395.6563" style="stroke:#181818;stroke-width:1.0;"/><line style="stroke:#181818;stroke-width:1.0;stroke-dasharray:2.0,2.0;" x1="509" x2="616" y1="395.6563" y2="395.6563"/><polygon fill="#181818" points="366.5,405.6563,356.5,409.6563,366.5,413.6563,362.5,409.6563" style="stroke:#181818;stroke-width:1.0;"/><line style="stroke:#181818;stroke-width:1.0;stroke-dasharray:2.0,2.0;" x1="360.5" x2="488" y1="409.6563" y2="409.6563"/><polygon fill="#181818" points="996.5,434.7891,1006.5,438.7891,996.5,442.7891,1000.5,438.7891" style="stroke:#181818;stroke-width:1.0;"/><line style="stroke:#181818;stroke-width:1.0;" x1="355.5" x2="1002.5" y1="438.7891" y2="438.7891"/><text fill="#000000" font-family="sans-serif" font-size="13" lengthAdjust="spacing" textLength="83" x="362.5" y="433.7231">transferFrom</text><polygon fill="#181818" points="366.5,448.7891,356.5,452.7891,366.5,456.7891,362.5,452.7891" style="stroke:#181818;stroke-width:1.0;"/><line style="stroke:#181818;stroke-width:1.0;stroke-dasharray:2.0,2.0;" x1="360.5" x2="1012.5" y1="452.7891" y2="452.7891"/><polygon fill="#181818" points="482,477.9219,492,481.9219,482,485.9219,486,481.9219" style="stroke:#181818;stroke-width:1.0;"/><line style="stroke:#181818;stroke-width:1.0;" x1="355.5" x2="488" y1="481.9219" y2="481.9219"/><text fill="#000000" font-family="sans-serif" font-size="13" lengthAdjust="spacing" textLength="36" x="362.5" y="476.856">settle</text><polygon fill="#181818" points="996.5,507.0547,1006.5,511.0547,996.5,515.0547,1000.5,511.0547" style="stroke:#181818;stroke-width:1.0;"/><line style="stroke:#181818;stroke-width:1.0;" x1="504" x2="1002.5" y1="511.0547" y2="511.0547"/><text fill="#000000" font-family="sans-serif" font-size="13" lengthAdjust="spacing" textLength="64" x="511" y="505.9888">balanceOf</text><polygon fill="#181818" points="515,521.0547,505,525.0547,515,529.0547,511,525.0547" style="stroke:#181818;stroke-width:1.0;"/><line style="stroke:#181818;stroke-width:1.0;stroke-dasharray:2.0,2.0;" x1="509" x2="1012.5" y1="525.0547" y2="525.0547"/><polygon fill="#181818" points="366.5,535.0547,356.5,539.0547,366.5,543.0547,362.5,539.0547" style="stroke:#181818;stroke-width:1.0;"/><line style="stroke:#181818;stroke-width:1.0;stroke-dasharray:2.0,2.0;" x1="360.5" x2="488" y1="539.0547" y2="539.0547"/><polygon fill="#181818" points="482,564.1875,492,568.1875,482,572.1875,486,568.1875" style="stroke:#181818;stroke-width:1.0;"/><line style="stroke:#181818;stroke-width:1.0;" x1="355.5" x2="488" y1="568.1875" y2="568.1875"/><text fill="#000000" font-family="sans-serif" font-size="13" lengthAdjust="spacing" textLength="28" x="362.5" y="563.1216">take</text><polygon fill="#181818" points="1114,593.3203,1124,597.3203,1114,601.3203,1118,597.3203" style="stroke:#181818;stroke-width:1.0;"/><line style="stroke:#181818;stroke-width:1.0;" x1="504" x2="1120" y1="597.3203" y2="597.3203"/><text fill="#000000" font-family="sans-serif" font-size="13" lengthAdjust="spacing" textLength="50" x="511" y="592.2544">transfer</text><polygon fill="#181818" points="515,607.3203,505,611.3203,515,615.3203,511,611.3203" style="stroke:#181818;stroke-width:1.0;"/><line style="stroke:#181818;stroke-width:1.0;stroke-dasharray:2.0,2.0;" x1="509" x2="1130" y1="611.3203" y2="611.3203"/><polygon fill="#181818" points="366.5,621.3203,356.5,625.3203,366.5,629.3203,362.5,625.3203" style="stroke:#181818;stroke-width:1.0;"/><line style="stroke:#181818;stroke-width:1.0;stroke-dasharray:2.0,2.0;" x1="360.5" x2="488" y1="625.3203" y2="625.3203"/><polygon fill="#181818" points="477,635.3203,487,639.3203,477,643.3203,481,639.3203" style="stroke:#181818;stroke-width:1.0;"/><line style="stroke:#181818;stroke-width:1.0;stroke-dasharray:2.0,2.0;" x1="350.5" x2="483" y1="639.3203" y2="639.3203"/><polygon fill="#181818" points="361.5,649.3203,351.5,653.3203,361.5,657.3203,357.5,653.3203" style="stroke:#181818;stroke-width:1.0;"/><line style="stroke:#181818;stroke-width:1.0;stroke-dasharray:2.0,2.0;" x1="355.5" x2="493" y1="653.3203" y2="653.3203"/><polygon fill="#181818" points="201,663.3203,191,667.3203,201,671.3203,197,667.3203" style="stroke:#181818;stroke-width:1.0;"/><line style="stroke:#181818;stroke-width:1.0;stroke-dasharray:2.0,2.0;" x1="195" x2="344.5" y1="667.3203" y2="667.3203"/><polygon fill="#181818" points="64.5,677.3203,54.5,681.3203,64.5,685.3203,60.5,681.3203" style="stroke:#181818;stroke-width:1.0;"/><line style="stroke:#181818;stroke-width:1.0;stroke-dasharray:2.0,2.0;" x1="58.5" x2="184" y1="681.3203" y2="681.3203"/><!--SRC=[ZPFTZjCm48Nl_HJMtcCbtZHDerMagbg4j8Ajje34fUEEbwWXBiuKojlZITVveO7bAZhs-JoUEGvMM0FV_LH7zhNQ0pVMOcdFZ2cDrl6Rw9naPYb454V93LSj9qc2iwDoMEdgg1eadrajj11BRLQTZoG9VdVtgQbQN-1pib5r3Que_aGXLI14AjK59KbYZ3xP4ywXQI8NGe3KPOUI9E7HhRNrUzMevpbCPZ8J8jDcsM4aINZiuSlcdRM7QoHEejBtTtkRTWX94XwvN- -spfv_NJDQfdvsMRo0ZY59uiBCbKYD4CbAofSIgI7XxHyV7-u_H4NXmQUDZAxHCerzGyaUBWsH917GU8ooFiCtHPzJpcdG57lrGo7qwwmFqfj3CZa_EgkXRGT_s69zUjuVuiXvRVLXC8TrrkSrEPpCQ_tzL3dO_tU5wVLdAuIOSrw2iGvs4oJiilurU2J4dFDdmAtQspKYjAYmiise-s1Z3l3aciaH8VNkY14-qC4HwEbdt6vu4Zb7fvhMW7lhxBVnFIxxS-neL83-htzbM4EfKjMgqV1e_bxdd-LG7Luh5jxhqDS0XBtvwSn-VWC0]--></g></svg>