<?xml version="1.0" encoding="us-ascii" standalone="no"?><svg xmlns="http://www.w3.org/2000/svg" xmlns:xlink="http://www.w3.org/1999/xlink" contentStyleType="text/css" height="749px" preserveAspectRatio="none" style="width:1216px;height:749px;background:#FFFFFF;" version="1.1" viewBox="0 0 1216 749" width="1216px" zoomAndPan="magnify"><defs/><g><text fill="#000000" font-family="sans-serif" font-size="14" font-weight="bold" lengthAdjust="spacing" textLength="162" x="526" y="27.9951">Add Liquidity to Pool</text><rect fill="#FFFFFF" height="574.7266" style="stroke:#181818;stroke-width:1.0;" width="10" x="175" y="149.7266"/><rect fill="#FFFFFF" height="531.5938" style="stroke:#181818;stroke-width:1.0;" width="10" x="335.5" y="178.8594"/><rect fill="#FFFFFF" height="445.3281" style="stroke:#181818;stroke-width:1.0;" width="10" x="340.5" y="237.125"/><rect fill="#FFFFFF" height="488.4609" style="stroke:#181818;stroke-width:1.0;" width="10" x="484" y="207.9922"/><rect fill="#FFFFFF" height="143.3984" style="stroke:#181818;stroke-width:1.0;" width="10" x="489" y="266.2578"/><rect fill="#FFFFFF" height="57.1328" style="stroke:#181818;stroke-width:1.0;" width="10" x="489" y="481.9219"/><rect fill="#FFFFFF" height="57.1328" style="stroke:#181818;stroke-width:1.0;" width="10" x="489" y="611.3203"/><rect fill="#FFFFFF" height="100.2656" style="stroke:#181818;stroke-width:1.0;" width="10" x="650" y="295.3906"/><rect fill="#FFFFFF" height="14" style="stroke:#181818;stroke-width:1.0;" width="10" x="810" y="324.5234"/><rect fill="#FFFFFF" height="14" style="stroke:#181818;stroke-width:1.0;" width="10" x="929" y="367.6563"/><rect fill="#FFFFFF" height="14" style="stroke:#181818;stroke-width:1.0;" width="10" x="1045" y="438.7891"/><rect fill="#FFFFFF" height="14" style="stroke:#181818;stroke-width:1.0;" width="10" x="1045" y="511.0547"/><rect fill="#FFFFFF" height="14" style="stroke:#181818;stroke-width:1.0;" width="10" x="1156" y="568.1875"/><rect fill="#FFFFFF" height="14" style="stroke:#181818;stroke-width:1.0;" width="10" x="1156" y="640.4531"/><line style="stroke:#181818;stroke-width:0.5;stroke-dasharray:5.0,5.0;" x1="51" x2="51" y1="118.5938" y2="742.4531"/><line style="stroke:#181818;stroke-width:0.5;stroke-dasharray:5.0,5.0;" x1="180" x2="180" y1="118.5938" y2="742.4531"/><line style="stroke:#181818;stroke-width:0.5;stroke-dasharray:5.0,5.0;" x1="340" x2="340" y1="118.5938" y2="742.4531"/><line style="stroke:#181818;stroke-width:0.5;stroke-dasharray:5.0,5.0;" x1="489" x2="489" y1="118.5938" y2="742.4531"/><line style="stroke:#181818;stroke-width:0.5;stroke-dasharray:5.0,5.0;" x1="655" x2="655" y1="118.5938" y2="742.4531"/><line style="stroke:#181818;stroke-width:0.5;stroke-dasharray:5.0,5.0;" x1="815" x2="815" y1="118.5938" y2="742.4531"/><line style="stroke:#181818;stroke-width:0.5;stroke-dasharray:5.0,5.0;" x1="934" x2="934" y1="118.5938" y2="742.4531"/><line style="stroke:#181818;stroke-width:0.5;stroke-dasharray:5.0,5.0;" x1="1050" x2="1050" y1="118.5938" y2="742.4531"/><line style="stroke:#181818;stroke-width:0.5;stroke-dasharray:5.0,5.0;" x1="1161" x2="1161" y1="118.5938" y2="742.4531"/><text fill="#000000" font-family="sans-serif" font-size="14" lengthAdjust="spacing" textLength="86" x="5" y="115.292">0xf39f..2266</text><ellipse cx="51" cy="50.7969" fill="#E2E2F0" rx="8" ry="8" style="stroke:#181818;stroke-width:0.5;"/><path d="M51,58.7969 L51,85.7969 M38,66.7969 L64,66.7969 M51,85.7969 L38,100.7969 M51,85.7969 L64,100.7969 " fill="none" style="stroke:#181818;stroke-width:0.5;"/><rect fill="#E2E2F0" height="46.5938" rx="2.5" ry="2.5" style="stroke:#181818;stroke-width:0.5;" width="146" x="107" y="71"/><text fill="#000000" font-family="sans-serif" font-size="14" font-style="italic" lengthAdjust="spacing" textLength="132" x="114" y="90.9951">&#171;UniswapV4Caller&#187;</text><text fill="#000000" font-family="sans-serif" font-size="14" lengthAdjust="spacing" textLength="90" x="135" y="107.292">0x5fc8..5707</text><rect fill="#E2E2F0" height="46.5938" rx="2.5" ry="2.5" style="stroke:#181818;stroke-width:0.5;" width="155" x="263" y="71"/><text fill="#000000" font-family="sans-serif" font-size="14" font-style="italic" lengthAdjust="spacing" textLength="141" x="270" y="90.9951">&#171;UniswapV4Router&#187;</text><text fill="#000000" font-family="sans-serif" font-size="14" lengthAdjust="spacing" textLength="89" x="296" y="107.292">0xdc64..f6c9</text><rect fill="#E2E2F0" height="46.5938" rx="2.5" ry="2.5" style="stroke:#181818;stroke-width:0.5;" width="122" x="428" y="71"/><text fill="#000000" font-family="sans-serif" font-size="14" font-style="italic" lengthAdjust="spacing" textLength="108" x="435" y="90.9951">&#171;PoolManager&#187;</text><text fill="#000000" font-family="sans-serif" font-size="14" lengthAdjust="spacing" textLength="89" x="444.5" y="107.292">0x5fbd..0aa3</text><rect fill="#E2E2F0" height="46.5938" rx="2.5" ry="2.5" style="stroke:#181818;stroke-width:0.5;" width="104" x="603" y="71"/><text fill="#000000" font-family="sans-serif" font-size="14" font-style="italic" lengthAdjust="spacing" textLength="82" x="614" y="90.9951">&#171;KYCHook&#187;</text><text fill="#000000" font-family="sans-serif" font-size="14" lengthAdjust="spacing" textLength="90" x="610" y="107.292">0x2834..3f0c</text><rect fill="#E2E2F0" height="46.5938" rx="2.5" ry="2.5" style="stroke:#181818;stroke-width:0.5;" width="110" x="760" y="71"/><text fill="#000000" font-family="sans-serif" font-size="14" font-style="italic" lengthAdjust="spacing" textLength="82" x="774" y="90.9951">&#171;EASProxy&#187;</text><text fill="#000000" font-family="sans-serif" font-size="14" lengthAdjust="spacing" textLength="96" x="767" y="107.292">0x6101..d788</text><rect fill="#E2E2F0" height="46.5938" rx="2.5" ry="2.5" style="stroke:#181818;stroke-width:0.5;" width="108" x="880" y="71"/><text fill="#000000" font-family="sans-serif" font-size="14" font-style="italic" lengthAdjust="spacing" textLength="45" x="911.5" y="90.9951">&#171;EAS&#187;</text><text fill="#000000" font-family="sans-serif" font-size="14" lengthAdjust="spacing" textLength="94" x="887" y="107.292">0x8a79..c318</text><rect fill="#E2E2F0" height="62.8906" rx="2.5" ry="2.5" style="stroke:#181818;stroke-width:0.5;" width="104" x="998" y="54.7031"/><text fill="#000000" font-family="sans-serif" font-size="14" font-style="italic" lengthAdjust="spacing" textLength="75" x="1012.5" y="74.6982">&#171;TOKEN0&#187;</text><text fill="#000000" font-family="sans-serif" font-size="14" font-style="italic" lengthAdjust="spacing" textLength="65" x="1017.5" y="90.9951">&#171;ERC20&#187;</text><text fill="#000000" font-family="sans-serif" font-size="14" lengthAdjust="spacing" textLength="90" x="1005" y="107.292">0x9fe4..a6e0</text><rect fill="#E2E2F0" height="62.8906" rx="2.5" ry="2.5" style="stroke:#181818;stroke-width:0.5;" width="98" x="1112" y="54.7031"/><text fill="#000000" font-family="sans-serif" font-size="14" font-style="italic" lengthAdjust="spacing" textLength="75" x="1123.5" y="74.6982">&#171;TOKEN1&#187;</text><text fill="#000000" font-family="sans-serif" font-size="14" font-style="italic" lengthAdjust="spacing" textLength="65" x="1128.5" y="90.9951">&#171;ERC20&#187;</text><text fill="#000000" font-family="sans-serif" font-size="14" lengthAdjust="spacing" textLength="84" x="1119" y="107.292">0xcf7e..0fc9</text><rect fill="#FFFFFF" height="574.7266" style="stroke:#181818;stroke-width:1.0;" width="10" x="175" y="149.7266"/><rect fill="#FFFFFF" height="531.5938" style="stroke:#181818;stroke-width:1.0;" width="10" x="335.5" y="178.8594"/><rect fill="#FFFFFF" height="445.3281" style="stroke:#181818;stroke-width:1.0;" width="10" x="340.5" y="237.125"/><rect fill="#FFFFFF" height="488.4609" style="stroke:#181818;stroke-width:1.0;" width="10" x="484" y="207.9922"/><rect fill="#FFFFFF" height="143.3984" style="stroke:#181818;stroke-width:1.0;" width="10" x="489" y="266.2578"/><rect fill="#FFFFFF" height="57.1328" style="stroke:#181818;stroke-width:1.0;" width="10" x="489" y="481.9219"/><rect fill="#FFFFFF" height="57.1328" style="stroke:#181818;stroke-width:1.0;" width="10" x="489" y="611.3203"/><rect fill="#FFFFFF" height="100.2656" style="stroke:#181818;stroke-width:1.0;" width="10" x="650" y="295.3906"/><rect fill="#FFFFFF" height="14" style="stroke:#181818;stroke-width:1.0;" width="10" x="810" y="324.5234"/><rect fill="#FFFFFF" height="14" style="stroke:#181818;stroke-width:1.0;" width="10" x="929" y="367.6563"/><rect fill="#FFFFFF" height="14" style="stroke:#181818;stroke-width:1.0;" width="10" x="1045" y="438.7891"/><rect fill="#FFFFFF" height="14" style="stroke:#181818;stroke-width:1.0;" width="10" x="1045" y="511.0547"/><rect fill="#FFFFFF" height="14" style="stroke:#181818;stroke-width:1.0;" width="10" x="1156" y="568.1875"/><rect fill="#FFFFFF" height="14" style="stroke:#181818;stroke-width:1.0;" width="10" x="1156" y="640.4531"/><polygon fill="#181818" points="163,145.7266,173,149.7266,163,153.7266,167,149.7266" style="stroke:#181818;stroke-width:1.0;"/><line style="stroke:#181818;stroke-width:1.0;" x1="51" x2="169" y1="149.7266" y2="149.7266"/><text fill="#000000" font-family="sans-serif" font-size="13" lengthAdjust="spacing" textLength="76" x="58" y="144.6606">addLiquidity</text><polygon fill="#181818" points="323.5,174.8594,333.5,178.8594,323.5,182.8594,327.5,178.8594" style="stroke:#181818;stroke-width:1.0;"/><line style="stroke:#181818;stroke-width:1.0;" x1="185" x2="329.5" y1="178.8594" y2="178.8594"/><text fill="#000000" font-family="sans-serif" font-size="13" lengthAdjust="spacing" textLength="50" x="192" y="173.7935">process</text><polygon fill="#181818" points="472,203.9922,482,207.9922,472,211.9922,476,207.9922" style="stroke:#181818;stroke-width:1.0;"/><line style="stroke:#181818;stroke-width:1.0;" x1="345.5" x2="478" y1="207.9922" y2="207.9922"/><text fill="#000000" font-family="sans-serif" font-size="13" lengthAdjust="spacing" textLength="25" x="352.5" y="202.9263">lock</text><polygon fill="#181818" points="361.5,233.125,351.5,237.125,361.5,241.125,357.5,237.125" style="stroke:#181818;stroke-width:1.0;"/><line style="stroke:#181818;stroke-width:1.0;" x1="355.5" x2="483" y1="237.125" y2="237.125"/><text fill="#000000" font-family="sans-serif" font-size="13" lengthAdjust="spacing" textLength="81" x="367.5" y="232.0591">lockAcquired</text><polygon fill="#181818" points="477,262.2578,487,266.2578,477,270.2578,481,266.2578" style="stroke:#181818;stroke-width:1.0;"/><line style="stroke:#181818;stroke-width:1.0;" x1="350.5" x2="483" y1="266.2578" y2="266.2578"/><text fill="#000000" font-family="sans-serif" font-size="13" lengthAdjust="spacing" textLength="93" x="357.5" y="261.1919">modifyPosition</text><polygon fill="#181818" points="638,291.3906,648,295.3906,638,299.3906,642,295.3906" style="stroke:#181818;stroke-width:1.0;"/><line style="stroke:#181818;stroke-width:1.0;" x1="499" x2="644" y1="295.3906" y2="295.3906"/><text fill="#000000" font-family="sans-serif" font-size="13" lengthAdjust="spacing" textLength="132" x="506" y="290.3247">beforeModifyPosition</text><polygon fill="#181818" points="798,320.5234,808,324.5234,798,328.5234,802,324.5234" style="stroke:#181818;stroke-width:1.0;"/><line style="stroke:#181818;stroke-width:1.0;" x1="660" x2="804" y1="324.5234" y2="324.5234"/><text fill="#000000" font-family="sans-serif" font-size="13" lengthAdjust="spacing" textLength="131" x="667" y="319.4575">getPadoAttestations</text><polygon fill="#181818" points="671,334.5234,661,338.5234,671,342.5234,667,338.5234" style="stroke:#181818;stroke-width:1.0;"/><line style="stroke:#181818;stroke-width:1.0;stroke-dasharray:2.0,2.0;" x1="665" x2="814" y1="338.5234" y2="338.5234"/><polygon fill="#181818" points="917,363.6563,927,367.6563,917,371.6563,921,367.6563" style="stroke:#181818;stroke-width:1.0;"/><line style="stroke:#181818;stroke-width:1.0;" x1="660" x2="923" y1="367.6563" y2="367.6563"/><text fill="#000000" font-family="sans-serif" font-size="13" lengthAdjust="spacing" textLength="92" x="667" y="362.5903">getAttestation</text><polygon fill="#181818" points="671,377.6563,661,381.6563,671,385.6563,667,381.6563" style="stroke:#181818;stroke-width:1.0;"/><line style="stroke:#181818;stroke-width:1.0;stroke-dasharray:2.0,2.0;" x1="665" x2="933" y1="381.6563" y2="381.6563"/><polygon fill="#181818" points="510,391.6563,500,395.6563,510,399.6563,506,395.6563" style="stroke:#181818;stroke-width:1.0;"/><line style="stroke:#181818;stroke-width:1.0;stroke-dasharray:2.0,2.0;" x1="504" x2="654" y1="395.6563" y2="395.6563"/><polygon fill="#181818" points="361.5,405.6563,351.5,409.6563,361.5,413.6563,357.5,409.6563" style="stroke:#181818;stroke-width:1.0;"/><line style="stroke:#181818;stroke-width:1.0;stroke-dasharray:2.0,2.0;" x1="355.5" x2="483" y1="409.6563" y2="409.6563"/><polygon fill="#181818" points="1033,434.7891,1043,438.7891,1033,442.7891,1037,438.7891" style="stroke:#181818;stroke-width:1.0;"/><line style="stroke:#181818;stroke-width:1.0;" x1="350.5" x2="1039" y1="438.7891" y2="438.7891"/><text fill="#000000" font-family="sans-serif" font-size="13" lengthAdjust="spacing" textLength="83" x="357.5" y="433.7231">transferFrom</text><polygon fill="#181818" points="361.5,448.7891,351.5,452.7891,361.5,456.7891,357.5,452.7891" style="stroke:#181818;stroke-width:1.0;"/><line style="stroke:#181818;stroke-width:1.0;stroke-dasharray:2.0,2.0;" x1="355.5" x2="1049" y1="452.7891" y2="452.7891"/><polygon fill="#181818" points="477,477.9219,487,481.9219,477,485.9219,481,481.9219" style="stroke:#181818;stroke-width:1.0;"/><line style="stroke:#181818;stroke-width:1.0;" x1="350.5" x2="483" y1="481.9219" y2="481.9219"/><text fill="#000000" font-family="sans-serif" font-size="13" lengthAdjust="spacing" textLength="36" x="357.5" y="476.856">settle</text><polygon fill="#181818" points="1033,507.0547,1043,511.0547,1033,515.0547,1037,511.0547" style="stroke:#181818;stroke-width:1.0;"/><line style="stroke:#181818;stroke-width:1.0;" x1="499" x2="1039" y1="511.0547" y2="511.0547"/><text fill="#000000" font-family="sans-serif" font-size="13" lengthAdjust="spacing" textLength="64" x="506" y="505.9888">balanceOf</text><polygon fill="#181818" points="510,521.0547,500,525.0547,510,529.0547,506,525.0547" style="stroke:#181818;stroke-width:1.0;"/><line style="stroke:#181818;stroke-width:1.0;stroke-dasharray:2.0,2.0;" x1="504" x2="1049" y1="525.0547" y2="525.0547"/><polygon fill="#181818" points="361.5,535.0547,351.5,539.0547,361.5,543.0547,357.5,539.0547" style="stroke:#181818;stroke-width:1.0;"/><line style="stroke:#181818;stroke-width:1.0;stroke-dasharray:2.0,2.0;" x1="355.5" x2="483" y1="539.0547" y2="539.0547"/><polygon fill="#181818" points="1144,564.1875,1154,568.1875,1144,572.1875,1148,568.1875" style="stroke:#181818;stroke-width:1.0;"/><line style="stroke:#181818;stroke-width:1.0;" x1="350.5" x2="1150" y1="568.1875" y2="568.1875"/><text fill="#000000" font-family="sans-serif" font-size="13" lengthAdjust="spacing" textLength="83" x="357.5" y="563.1216">transferFrom</text><polygon fill="#181818" points="361.5,578.1875,351.5,582.1875,361.5,586.1875,357.5,582.1875" style="stroke:#181818;stroke-width:1.0;"/><line style="stroke:#181818;stroke-width:1.0;stroke-dasharray:2.0,2.0;" x1="355.5" x2="1160" y1="582.1875" y2="582.1875"/><polygon fill="#181818" points="477,607.3203,487,611.3203,477,615.3203,481,611.3203" style="stroke:#181818;stroke-width:1.0;"/><line style="stroke:#181818;stroke-width:1.0;" x1="350.5" x2="483" y1="611.3203" y2="611.3203"/><text fill="#000000" font-family="sans-serif" font-size="13" lengthAdjust="spacing" textLength="36" x="357.5" y="606.2544">settle</text><polygon fill="#181818" points="1144,636.4531,1154,640.4531,1144,644.4531,1148,640.4531" style="stroke:#181818;stroke-width:1.0;"/><line style="stroke:#181818;stroke-width:1.0;" x1="499" x2="1150" y1="640.4531" y2="640.4531"/><text fill="#000000" font-family="sans-serif" font-size="13" lengthAdjust="spacing" textLength="64" x="506" y="635.3872">balanceOf</text><polygon fill="#181818" points="510,650.4531,500,654.4531,510,658.4531,506,654.4531" style="stroke:#181818;stroke-width:1.0;"/><line style="stroke:#181818;stroke-width:1.0;stroke-dasharray:2.0,2.0;" x1="504" x2="1160" y1="654.4531" y2="654.4531"/><polygon fill="#181818" points="361.5,664.4531,351.5,668.4531,361.5,672.4531,357.5,668.4531" style="stroke:#181818;stroke-width:1.0;"/><line style="stroke:#181818;stroke-width:1.0;stroke-dasharray:2.0,2.0;" x1="355.5" x2="483" y1="668.4531" y2="668.4531"/><polygon fill="#181818" points="472,678.4531,482,682.4531,472,686.4531,476,682.4531" style="stroke:#181818;stroke-width:1.0;"/><line style="stroke:#181818;stroke-width:1.0;stroke-dasharray:2.0,2.0;" x1="345.5" x2="478" y1="682.4531" y2="682.4531"/><polygon fill="#181818" points="356.5,692.4531,346.5,696.4531,356.5,700.4531,352.5,696.4531" style="stroke:#181818;stroke-width:1.0;"/><line style="stroke:#181818;stroke-width:1.0;stroke-dasharray:2.0,2.0;" x1="350.5" x2="488" y1="696.4531" y2="696.4531"/><polygon fill="#181818" points="196,706.4531,186,710.4531,196,714.4531,192,710.4531" style="stroke:#181818;stroke-width:1.0;"/><line style="stroke:#181818;stroke-width:1.0;stroke-dasharray:2.0,2.0;" x1="190" x2="339.5" y1="710.4531" y2="710.4531"/><polygon fill="#181818" points="62,720.4531,52,724.4531,62,728.4531,58,724.4531" style="stroke:#181818;stroke-width:1.0;"/><line style="stroke:#181818;stroke-width:1.0;stroke-dasharray:2.0,2.0;" x1="56" x2="179" y1="724.4531" y2="724.4531"/><!--SRC=[hPHRJ-Cm48NV_Iiith7IXYPfX29L5IiabgLYBz8-Ehwm5Y5J71VQVx-U52SfJGKFF4KdFf_FP6OKProbw49A-jqyRumqRaSTq1L0HVuPgQW6S2Li2U72WQLdqLR7SytOT9eaPvGt52KAIjRSEYFCcjSEVJCjCiPcQPIsFfGewENbxzeqhtpzvsB9gqhPedYFIf5SCAOJCMzHb2Y6w3rit1WwqwLaBE8yVaij9GgFuZVTyfe_Z67JBFQ9iOv4Yw54uR6RlyjhWCTZ99b44yPaccKjWXA5HwuMFrSMjhjZ9kFfd34HJ_OCIXHxvjW-ryfNnHCLjNQKABpzrztDrO-eA3nulvn6nwZGgV9zq6yjH8aYe9CXIhePdXVTd7BAfUoM0iTlNhXJtJdf1kgXCA6ShYq8rJIzFnoHRefjo7uiEQr0F0ultxydtTmEBaVpGlYIh9AVJdW2QVHk1Orn1keFiiBWSreg3LRTde23ZtIRuk6m0ZbzK6x59IoSKutZY0uw4cp4AhUnzS4LOIFQAmPuJmT7e0yVmnQ4TScfixnkjBBVB3prDuNpCRPlNwES_qLyqBO-gkGLhuMwqwTpHkB2UfugDPn_GQbzr4YfxtC-yVWF]--></g></svg>