<?xml version="1.0" encoding="us-ascii" standalone="no"?><svg xmlns="http://www.w3.org/2000/svg" xmlns:xlink="http://www.w3.org/1999/xlink" contentStyleType="text/css" height="188px" preserveAspectRatio="none" style="width:235px;height:188px;background:#FFFFFF;" version="1.1" viewBox="0 0 235 188" width="235px" zoomAndPan="magnify"><defs/><g><text fill="#000000" font-family="sans-serif" font-size="14" font-weight="bold" lengthAdjust="spacing" textLength="107" x="63" y="27.9951">Pool Manager</text><rect fill="#FFFFFF" height="14" style="stroke:#181818;stroke-width:1.0;" width="10" x="163" y="149.7266"/><line style="stroke:#181818;stroke-width:0.5;stroke-dasharray:5.0,5.0;" x1="51" x2="51" y1="118.5938" y2="181.7266"/><line style="stroke:#181818;stroke-width:0.5;stroke-dasharray:5.0,5.0;" x1="168" x2="168" y1="118.5938" y2="181.7266"/><text fill="#000000" font-family="sans-serif" font-size="14" lengthAdjust="spacing" textLength="86" x="5" y="115.292">0xf39f..2266</text><ellipse cx="51" cy="50.7969" fill="#E2E2F0" rx="8" ry="8" style="stroke:#181818;stroke-width:0.5;"/><path d="M51,58.7969 L51,85.7969 M38,66.7969 L64,66.7969 M51,85.7969 L38,100.7969 M51,85.7969 L64,100.7969 " fill="none" style="stroke:#181818;stroke-width:0.5;"/><rect fill="#E2E2F0" height="46.5938" rx="2.5" ry="2.5" style="stroke:#181818;stroke-width:0.5;" width="122" x="107" y="71"/><text fill="#000000" font-family="sans-serif" font-size="14" font-style="italic" lengthAdjust="spacing" textLength="108" x="114" y="90.9951">&#171;PoolManager&#187;</text><text fill="#000000" font-family="sans-serif" font-size="14" lengthAdjust="spacing" textLength="89" x="123.5" y="107.292">0x5fbd..0aa3</text><rect fill="#FFFFFF" height="14" style="stroke:#181818;stroke-width:1.0;" width="10" x="163" y="149.7266"/><ellipse cx="162.5" cy="148.9766" fill="none" rx="4" ry="4" style="stroke:#181818;stroke-width:1.5;"/><polygon fill="#181818" points="145.5,145.7266,155.5,149.7266,145.5,153.7266,149.5,149.7266" style="stroke:#181818;stroke-width:1.0;"/><line style="stroke:#181818;stroke-width:1.0;" x1="51" x2="151.5" y1="149.7266" y2="149.7266"/><text fill="#000000" font-family="sans-serif" font-size="13" lengthAdjust="spacing" textLength="73" x="58" y="144.6606">constructor</text><ellipse cx="50.5" cy="162.9766" fill="none" rx="4" ry="4" style="stroke:#181818;stroke-width:1.5;"/><polygon fill="#181818" points="67.5,159.7266,57.5,163.7266,67.5,167.7266,63.5,163.7266" style="stroke:#181818;stroke-width:1.0;"/><line style="stroke:#181818;stroke-width:1.0;stroke-dasharray:2.0,2.0;" x1="65.5" x2="167" y1="163.7266" y2="163.7266"/><!--SRC=[FOr12eCm44NtSuh1lK6K2YsI6nHwXJ4cDY0P6SVYySkKakNZF_xJh5l45_E6JogqHe5tNY8cPftv0g2WBDXqLnhkoRc-7yS6wK130uITH7F8EnKrxvRcnRcEQFXvXWOuJLRvHxm7g0-jvwezC70vL4xBMZn_I6ETGQAUKk0B]--></g></svg>