<?xml version="1.0" encoding="us-ascii" standalone="no"?><svg xmlns="http://www.w3.org/2000/svg" xmlns:xlink="http://www.w3.org/1999/xlink" contentStyleType="text/css" height="706px" preserveAspectRatio="none" style="width:1173px;height:706px;background:#FFFFFF;" version="1.1" viewBox="0 0 1173 706" width="1173px" zoomAndPan="magnify"><defs/><g><text fill="#000000" font-family="sans-serif" font-size="14" font-weight="bold" lengthAdjust="spacing" textLength="43" x="564" y="27.9951">Swap</text><rect fill="#FFFFFF" height="531.5938" style="stroke:#181818;stroke-width:1.0;" width="10" x="175" y="149.7266"/><rect fill="#FFFFFF" height="488.4609" style="stroke:#181818;stroke-width:1.0;" width="10" x="335.5" y="178.8594"/><rect fill="#FFFFFF" height="402.1953" style="stroke:#181818;stroke-width:1.0;" width="10" x="340.5" y="237.125"/><rect fill="#FFFFFF" height="445.3281" style="stroke:#181818;stroke-width:1.0;" width="10" x="484" y="207.9922"/><rect fill="#FFFFFF" height="143.3984" style="stroke:#181818;stroke-width:1.0;" width="10" x="489" y="266.2578"/><rect fill="#FFFFFF" height="57.1328" style="stroke:#181818;stroke-width:1.0;" width="10" x="489" y="481.9219"/><rect fill="#FFFFFF" height="57.1328" style="stroke:#181818;stroke-width:1.0;" width="10" x="489" y="568.1875"/><rect fill="#FFFFFF" height="100.2656" style="stroke:#181818;stroke-width:1.0;" width="10" x="607" y="295.3906"/><rect fill="#FFFFFF" height="14" style="stroke:#181818;stroke-width:1.0;" width="10" x="767" y="324.5234"/><rect fill="#FFFFFF" height="14" style="stroke:#181818;stroke-width:1.0;" width="10" x="886" y="367.6563"/><rect fill="#FFFFFF" height="14" style="stroke:#181818;stroke-width:1.0;" width="10" x="1002" y="438.7891"/><rect fill="#FFFFFF" height="14" style="stroke:#181818;stroke-width:1.0;" width="10" x="1002" y="511.0547"/><rect fill="#FFFFFF" height="14" style="stroke:#181818;stroke-width:1.0;" width="10" x="1113" y="597.3203"/><line style="stroke:#181818;stroke-width:0.5;stroke-dasharray:5.0,5.0;" x1="51" x2="51" y1="118.5938" y2="699.3203"/><line style="stroke:#181818;stroke-width:0.5;stroke-dasharray:5.0,5.0;" x1="180" x2="180" y1="118.5938" y2="699.3203"/><line style="stroke:#181818;stroke-width:0.5;stroke-dasharray:5.0,5.0;" x1="340" x2="340" y1="118.5938" y2="699.3203"/><line style="stroke:#181818;stroke-width:0.5;stroke-dasharray:5.0,5.0;" x1="489" x2="489" y1="118.5938" y2="699.3203"/><line style="stroke:#181818;stroke-width:0.5;stroke-dasharray:5.0,5.0;" x1="612" x2="612" y1="118.5938" y2="699.3203"/><line style="stroke:#181818;stroke-width:0.5;stroke-dasharray:5.0,5.0;" x1="772" x2="772" y1="118.5938" y2="699.3203"/><line style="stroke:#181818;stroke-width:0.5;stroke-dasharray:5.0,5.0;" x1="891" x2="891" y1="118.5938" y2="699.3203"/><line style="stroke:#181818;stroke-width:0.5;stroke-dasharray:5.0,5.0;" x1="1007" x2="1007" y1="118.5938" y2="699.3203"/><line style="stroke:#181818;stroke-width:0.5;stroke-dasharray:5.0,5.0;" x1="1118" x2="1118" y1="118.5938" y2="699.3203"/><text fill="#000000" font-family="sans-serif" font-size="14" lengthAdjust="spacing" textLength="86" x="5" y="115.292">0xf39f..2266</text><ellipse cx="51" cy="50.7969" fill="#E2E2F0" rx="8" ry="8" style="stroke:#181818;stroke-width:0.5;"/><path d="M51,58.7969 L51,85.7969 M38,66.7969 L64,66.7969 M51,85.7969 L38,100.7969 M51,85.7969 L64,100.7969 " fill="none" style="stroke:#181818;stroke-width:0.5;"/><rect fill="#E2E2F0" height="46.5938" rx="2.5" ry="2.5" style="stroke:#181818;stroke-width:0.5;" width="146" x="107" y="71"/><text fill="#000000" font-family="sans-serif" font-size="14" font-style="italic" lengthAdjust="spacing" textLength="132" x="114" y="90.9951">&#171;UniswapV4Caller&#187;</text><text fill="#000000" font-family="sans-serif" font-size="14" lengthAdjust="spacing" textLength="90" x="135" y="107.292">0x5fc8..5707</text><rect fill="#E2E2F0" height="46.5938" rx="2.5" ry="2.5" style="stroke:#181818;stroke-width:0.5;" width="155" x="263" y="71"/><text fill="#000000" font-family="sans-serif" font-size="14" font-style="italic" lengthAdjust="spacing" textLength="141" x="270" y="90.9951">&#171;UniswapV4Router&#187;</text><text fill="#000000" font-family="sans-serif" font-size="14" lengthAdjust="spacing" textLength="89" x="296" y="107.292">0xdc64..f6c9</text><rect fill="#E2E2F0" height="46.5938" rx="2.5" ry="2.5" style="stroke:#181818;stroke-width:0.5;" width="122" x="428" y="71"/><text fill="#000000" font-family="sans-serif" font-size="14" font-style="italic" lengthAdjust="spacing" textLength="108" x="435" y="90.9951">&#171;PoolManager&#187;</text><text fill="#000000" font-family="sans-serif" font-size="14" lengthAdjust="spacing" textLength="89" x="444.5" y="107.292">0x5fbd..0aa3</text><rect fill="#E2E2F0" height="46.5938" rx="2.5" ry="2.5" style="stroke:#181818;stroke-width:0.5;" width="104" x="560" y="71"/><text fill="#000000" font-family="sans-serif" font-size="14" font-style="italic" lengthAdjust="spacing" textLength="82" x="571" y="90.9951">&#171;KYCHook&#187;</text><text fill="#000000" font-family="sans-serif" font-size="14" lengthAdjust="spacing" textLength="90" x="567" y="107.292">0x2834..3f0c</text><rect fill="#E2E2F0" height="46.5938" rx="2.5" ry="2.5" style="stroke:#181818;stroke-width:0.5;" width="110" x="717" y="71"/><text fill="#000000" font-family="sans-serif" font-size="14" font-style="italic" lengthAdjust="spacing" textLength="82" x="731" y="90.9951">&#171;EASProxy&#187;</text><text fill="#000000" font-family="sans-serif" font-size="14" lengthAdjust="spacing" textLength="96" x="724" y="107.292">0x6101..d788</text><rect fill="#E2E2F0" height="46.5938" rx="2.5" ry="2.5" style="stroke:#181818;stroke-width:0.5;" width="108" x="837" y="71"/><text fill="#000000" font-family="sans-serif" font-size="14" font-style="italic" lengthAdjust="spacing" textLength="45" x="868.5" y="90.9951">&#171;EAS&#187;</text><text fill="#000000" font-family="sans-serif" font-size="14" lengthAdjust="spacing" textLength="94" x="844" y="107.292">0x8a79..c318</text><rect fill="#E2E2F0" height="62.8906" rx="2.5" ry="2.5" style="stroke:#181818;stroke-width:0.5;" width="104" x="955" y="54.7031"/><text fill="#000000" font-family="sans-serif" font-size="14" font-style="italic" lengthAdjust="spacing" textLength="75" x="969.5" y="74.6982">&#171;TOKEN0&#187;</text><text fill="#000000" font-family="sans-serif" font-size="14" font-style="italic" lengthAdjust="spacing" textLength="65" x="974.5" y="90.9951">&#171;ERC20&#187;</text><text fill="#000000" font-family="sans-serif" font-size="14" lengthAdjust="spacing" textLength="90" x="962" y="107.292">0x9fe4..a6e0</text><rect fill="#E2E2F0" height="62.8906" rx="2.5" ry="2.5" style="stroke:#181818;stroke-width:0.5;" width="98" x="1069" y="54.7031"/><text fill="#000000" font-family="sans-serif" font-size="14" font-style="italic" lengthAdjust="spacing" textLength="75" x="1080.5" y="74.6982">&#171;TOKEN1&#187;</text><text fill="#000000" font-family="sans-serif" font-size="14" font-style="italic" lengthAdjust="spacing" textLength="65" x="1085.5" y="90.9951">&#171;ERC20&#187;</text><text fill="#000000" font-family="sans-serif" font-size="14" lengthAdjust="spacing" textLength="84" x="1076" y="107.292">0xcf7e..0fc9</text><rect fill="#FFFFFF" height="531.5938" style="stroke:#181818;stroke-width:1.0;" width="10" x="175" y="149.7266"/><rect fill="#FFFFFF" height="488.4609" style="stroke:#181818;stroke-width:1.0;" width="10" x="335.5" y="178.8594"/><rect fill="#FFFFFF" height="402.1953" style="stroke:#181818;stroke-width:1.0;" width="10" x="340.5" y="237.125"/><rect fill="#FFFFFF" height="445.3281" style="stroke:#181818;stroke-width:1.0;" width="10" x="484" y="207.9922"/><rect fill="#FFFFFF" height="143.3984" style="stroke:#181818;stroke-width:1.0;" width="10" x="489" y="266.2578"/><rect fill="#FFFFFF" height="57.1328" style="stroke:#181818;stroke-width:1.0;" width="10" x="489" y="481.9219"/><rect fill="#FFFFFF" height="57.1328" style="stroke:#181818;stroke-width:1.0;" width="10" x="489" y="568.1875"/><rect fill="#FFFFFF" height="100.2656" style="stroke:#181818;stroke-width:1.0;" width="10" x="607" y="295.3906"/><rect fill="#FFFFFF" height="14" style="stroke:#181818;stroke-width:1.0;" width="10" x="767" y="324.5234"/><rect fill="#FFFFFF" height="14" style="stroke:#181818;stroke-width:1.0;" width="10" x="886" y="367.6563"/><rect fill="#FFFFFF" height="14" style="stroke:#181818;stroke-width:1.0;" width="10" x="1002" y="438.7891"/><rect fill="#FFFFFF" height="14" style="stroke:#181818;stroke-width:1.0;" width="10" x="1002" y="511.0547"/><rect fill="#FFFFFF" height="14" style="stroke:#181818;stroke-width:1.0;" width="10" x="1113" y="597.3203"/><polygon fill="#181818" points="163,145.7266,173,149.7266,163,153.7266,167,149.7266" style="stroke:#181818;stroke-width:1.0;"/><line style="stroke:#181818;stroke-width:1.0;" x1="51" x2="169" y1="149.7266" y2="149.7266"/><text fill="#000000" font-family="sans-serif" font-size="13" lengthAdjust="spacing" textLength="32" x="58" y="144.6606">swap</text><polygon fill="#181818" points="323.5,174.8594,333.5,178.8594,323.5,182.8594,327.5,178.8594" style="stroke:#181818;stroke-width:1.0;"/><line style="stroke:#181818;stroke-width:1.0;" x1="185" x2="329.5" y1="178.8594" y2="178.8594"/><text fill="#000000" font-family="sans-serif" font-size="13" lengthAdjust="spacing" textLength="50" x="192" y="173.7935">process</text><polygon fill="#181818" points="472,203.9922,482,207.9922,472,211.9922,476,207.9922" style="stroke:#181818;stroke-width:1.0;"/><line style="stroke:#181818;stroke-width:1.0;" x1="345.5" x2="478" y1="207.9922" y2="207.9922"/><text fill="#000000" font-family="sans-serif" font-size="13" lengthAdjust="spacing" textLength="25" x="352.5" y="202.9263">lock</text><polygon fill="#181818" points="361.5,233.125,351.5,237.125,361.5,241.125,357.5,237.125" style="stroke:#181818;stroke-width:1.0;"/><line style="stroke:#181818;stroke-width:1.0;" x1="355.5" x2="483" y1="237.125" y2="237.125"/><text fill="#000000" font-family="sans-serif" font-size="13" lengthAdjust="spacing" textLength="81" x="367.5" y="232.0591">lockAcquired</text><polygon fill="#181818" points="477,262.2578,487,266.2578,477,270.2578,481,266.2578" style="stroke:#181818;stroke-width:1.0;"/><line style="stroke:#181818;stroke-width:1.0;" x1="350.5" x2="483" y1="266.2578" y2="266.2578"/><text fill="#000000" font-family="sans-serif" font-size="13" lengthAdjust="spacing" textLength="32" x="357.5" y="261.1919">swap</text><polygon fill="#181818" points="595,291.3906,605,295.3906,595,299.3906,599,295.3906" style="stroke:#181818;stroke-width:1.0;"/><line style="stroke:#181818;stroke-width:1.0;" x1="499" x2="601" y1="295.3906" y2="295.3906"/><text fill="#000000" font-family="sans-serif" font-size="13" lengthAdjust="spacing" textLength="75" x="506" y="290.3247">beforeSwap</text><polygon fill="#181818" points="755,320.5234,765,324.5234,755,328.5234,759,324.5234" style="stroke:#181818;stroke-width:1.0;"/><line style="stroke:#181818;stroke-width:1.0;" x1="617" x2="761" y1="324.5234" y2="324.5234"/><text fill="#000000" font-family="sans-serif" font-size="13" lengthAdjust="spacing" textLength="131" x="624" y="319.4575">getPadoAttestations</text><polygon fill="#181818" points="628,334.5234,618,338.5234,628,342.5234,624,338.5234" style="stroke:#181818;stroke-width:1.0;"/><line style="stroke:#181818;stroke-width:1.0;stroke-dasharray:2.0,2.0;" x1="622" x2="771" y1="338.5234" y2="338.5234"/><polygon fill="#181818" points="874,363.6563,884,367.6563,874,371.6563,878,367.6563" style="stroke:#181818;stroke-width:1.0;"/><line style="stroke:#181818;stroke-width:1.0;" x1="617" x2="880" y1="367.6563" y2="367.6563"/><text fill="#000000" font-family="sans-serif" font-size="13" lengthAdjust="spacing" textLength="92" x="624" y="362.5903">getAttestation</text><polygon fill="#181818" points="628,377.6563,618,381.6563,628,385.6563,624,381.6563" style="stroke:#181818;stroke-width:1.0;"/><line style="stroke:#181818;stroke-width:1.0;stroke-dasharray:2.0,2.0;" x1="622" x2="890" y1="381.6563" y2="381.6563"/><polygon fill="#181818" points="510,391.6563,500,395.6563,510,399.6563,506,395.6563" style="stroke:#181818;stroke-width:1.0;"/><line style="stroke:#181818;stroke-width:1.0;stroke-dasharray:2.0,2.0;" x1="504" x2="611" y1="395.6563" y2="395.6563"/><polygon fill="#181818" points="361.5,405.6563,351.5,409.6563,361.5,413.6563,357.5,409.6563" style="stroke:#181818;stroke-width:1.0;"/><line style="stroke:#181818;stroke-width:1.0;stroke-dasharray:2.0,2.0;" x1="355.5" x2="483" y1="409.6563" y2="409.6563"/><polygon fill="#181818" points="990,434.7891,1000,438.7891,990,442.7891,994,438.7891" style="stroke:#181818;stroke-width:1.0;"/><line style="stroke:#181818;stroke-width:1.0;" x1="350.5" x2="996" y1="438.7891" y2="438.7891"/><text fill="#000000" font-family="sans-serif" font-size="13" lengthAdjust="spacing" textLength="83" x="357.5" y="433.7231">transferFrom</text><polygon fill="#181818" points="361.5,448.7891,351.5,452.7891,361.5,456.7891,357.5,452.7891" style="stroke:#181818;stroke-width:1.0;"/><line style="stroke:#181818;stroke-width:1.0;stroke-dasharray:2.0,2.0;" x1="355.5" x2="1006" y1="452.7891" y2="452.7891"/><polygon fill="#181818" points="477,477.9219,487,481.9219,477,485.9219,481,481.9219" style="stroke:#181818;stroke-width:1.0;"/><line style="stroke:#181818;stroke-width:1.0;" x1="350.5" x2="483" y1="481.9219" y2="481.9219"/><text fill="#000000" font-family="sans-serif" font-size="13" lengthAdjust="spacing" textLength="36" x="357.5" y="476.856">settle</text><polygon fill="#181818" points="990,507.0547,1000,511.0547,990,515.0547,994,511.0547" style="stroke:#181818;stroke-width:1.0;"/><line style="stroke:#181818;stroke-width:1.0;" x1="499" x2="996" y1="511.0547" y2="511.0547"/><text fill="#000000" font-family="sans-serif" font-size="13" lengthAdjust="spacing" textLength="64" x="506" y="505.9888">balanceOf</text><polygon fill="#181818" points="510,521.0547,500,525.0547,510,529.0547,506,525.0547" style="stroke:#181818;stroke-width:1.0;"/><line style="stroke:#181818;stroke-width:1.0;stroke-dasharray:2.0,2.0;" x1="504" x2="1006" y1="525.0547" y2="525.0547"/><polygon fill="#181818" points="361.5,535.0547,351.5,539.0547,361.5,543.0547,357.5,539.0547" style="stroke:#181818;stroke-width:1.0;"/><line style="stroke:#181818;stroke-width:1.0;stroke-dasharray:2.0,2.0;" x1="355.5" x2="483" y1="539.0547" y2="539.0547"/><polygon fill="#181818" points="477,564.1875,487,568.1875,477,572.1875,481,568.1875" style="stroke:#181818;stroke-width:1.0;"/><line style="stroke:#181818;stroke-width:1.0;" x1="350.5" x2="483" y1="568.1875" y2="568.1875"/><text fill="#000000" font-family="sans-serif" font-size="13" lengthAdjust="spacing" textLength="28" x="357.5" y="563.1216">take</text><polygon fill="#181818" points="1101,593.3203,1111,597.3203,1101,601.3203,1105,597.3203" style="stroke:#181818;stroke-width:1.0;"/><line style="stroke:#181818;stroke-width:1.0;" x1="499" x2="1107" y1="597.3203" y2="597.3203"/><text fill="#000000" font-family="sans-serif" font-size="13" lengthAdjust="spacing" textLength="50" x="506" y="592.2544">transfer</text><polygon fill="#181818" points="510,607.3203,500,611.3203,510,615.3203,506,611.3203" style="stroke:#181818;stroke-width:1.0;"/><line style="stroke:#181818;stroke-width:1.0;stroke-dasharray:2.0,2.0;" x1="504" x2="1117" y1="611.3203" y2="611.3203"/><polygon fill="#181818" points="361.5,621.3203,351.5,625.3203,361.5,629.3203,357.5,625.3203" style="stroke:#181818;stroke-width:1.0;"/><line style="stroke:#181818;stroke-width:1.0;stroke-dasharray:2.0,2.0;" x1="355.5" x2="483" y1="625.3203" y2="625.3203"/><polygon fill="#181818" points="472,635.3203,482,639.3203,472,643.3203,476,639.3203" style="stroke:#181818;stroke-width:1.0;"/><line style="stroke:#181818;stroke-width:1.0;stroke-dasharray:2.0,2.0;" x1="345.5" x2="478" y1="639.3203" y2="639.3203"/><polygon fill="#181818" points="356.5,649.3203,346.5,653.3203,356.5,657.3203,352.5,653.3203" style="stroke:#181818;stroke-width:1.0;"/><line style="stroke:#181818;stroke-width:1.0;stroke-dasharray:2.0,2.0;" x1="350.5" x2="488" y1="653.3203" y2="653.3203"/><polygon fill="#181818" points="196,663.3203,186,667.3203,196,671.3203,192,667.3203" style="stroke:#181818;stroke-width:1.0;"/><line style="stroke:#181818;stroke-width:1.0;stroke-dasharray:2.0,2.0;" x1="190" x2="339.5" y1="667.3203" y2="667.3203"/><polygon fill="#181818" points="62,677.3203,52,681.3203,62,685.3203,58,681.3203" style="stroke:#181818;stroke-width:1.0;"/><line style="stroke:#181818;stroke-width:1.0;stroke-dasharray:2.0,2.0;" x1="56" x2="179" y1="681.3203" y2="681.3203"/><!--SRC=[ZPFTRgCm48Nl_HHMxskHq0115L8KjLgfsZPgsfNsSZ3Z5eN5MUDqiszV3wc1DFJd2XtxV3Fs76DBMo5V_uCjUouBv4fhc-izOo2jDlmisAjmheIOJgFeZ4F3IPBWR0l6bhBSGct9DrCo4M8M1t7h8qc2Nru-rcNZ6lowM49LeScozsWXemiXL2JdBKgIn12zrpixXivKNWWH08HlNVE2X4DNMbS_eOQdCMoQXAvZg0BPOYH9EEpcz_A7rfjJ99e44o6AE4bQX2G9XrmjrYkZz_zFcGJYkH0od1mOaYGEpAbzhj2T2Y8CMZj94ix-S7TpTHjacGFlbzFW59KgHZS7zJP2aYGyEXcYhClmFEjoIZaDcc8lNy1Yjyww89tP9vFohT4IcwRt-otMfTSMFyIHyahBpR3uOPrrUHqL9_D2_jsL1ejlTtX__94EFkQKvwYqmVKHudTPzneSucDE-HFQ5HHwOIqs5cofwy7jlOqPj3jJ7vNmgRSb1dXFUuUdZp_3w_edaN9he6uKcckZ__IL_FuOEnWLMlVNVp6ilbKE5TGIxzJ7VJvjPs7pLJF_NljxzO3V6v_EwESL]--></g></svg>